<?xml version="1.0" encoding="UTF-8"?>
<svg id="Layer_1" xmlns="http://www.w3.org/2000/svg" version="1.1" viewBox="0 0 16 16">
  <!-- Generator: Adobe Illustrator 29.5.0, SVG Export Plug-In . SVG Version: 2.1.0 Build 35)  -->
  <defs>
    <style>
      .st0 {
        fill: #3b4147;
      }

      .st1 {
        fill: #d67c48;
      }
    </style>
  </defs>
  <rect class="st0" x="0" width="16" height="16" rx="2" ry="2"/>
  <g>
    <rect class="st1" y="3" width="16" height=".4"/>
    <g>
      <path class="st1" d="M6.4,5.7c0,0,0-.2,0-.3,0-.3-.2-.5-.5-.5s-.5.2-.5.5.2.5.5.5,0,0,.1,0l.6.9v5l-.7,1.3s0,0,0,0c-.3,0-.5.2-.5.5s.2.5.5.5.5-.2.5-.5,0-.2-.1-.3l.7-1.3s0,0,0,0v-5.1s0,0,0,0l-.7-.9ZM5.8,5.5c0-.1,0-.2.2-.2s.2,0,.2.2,0,.2-.2.2-.2,0-.2-.2ZM6,13.8c-.1,0-.2,0-.2-.2s0-.2.2-.2.2,0,.2.2,0,.2-.2.2Z"/>
      <path class="st1" d="M6,11.6s0,0,0-.1v-3.9s0,0,0-.1l-1.1-1c0,0-.2,0-.2,0,0,0,0,.2,0,.2l1.1,1v2.4l-1.2,1.1-.4-.4.8-.7s0,0,0-.1v-1.9c0,0,0-.1,0-.1l-1.6-1s0,0,0,0c0-.3-.2-.5-.5-.5s-.5.2-.5.5.2.5.5.5.2,0,.3-.1l1.5.9v.7h-1.8c0-.2-.2-.3-.4-.3s-.5.2-.5.5.2.5.5.5.4-.1.4-.3h1.8v.7l-.8.8s0,0,0,.1c0,0,0,0,0,.1l.4.4h-.7c0-.2-.2-.3-.4-.3s-.5.2-.5.5.2.5.5.5.4-.1.4-.3h1.1s0,0,0,0c0,0,0,0,0,0,0,0,0,0,0,0,0,0,0,0,0,0,0,0,0,0,0,0,0,0,0,0,0,0,0,0,0,0,0,0,0,0,0,0,0,0,0,0,0,0,0,0,0,0,0,0,0,0,0,0,0,0,0,0,0,0,0,0,0,0,0,0,0,0,0,0,0,0,0,0,0,0,0,0,0,0,0,0,0,0,0,0,0,0l1.1-1v.9l-1.1,1c0,0-.1,0-.2,0-.3,0-.5.2-.5.5s.2.5.5.5.5-.2.5-.5,0-.1,0-.2l1.1-1ZM2.8,6.9c-.1,0-.2,0-.2-.2s0-.2.2-.2.2,0,.2.2,0,.2-.2.2ZM2.3,9.1c-.1,0-.2,0-.2-.2s0-.2.2-.2.2,0,.2.2,0,.2-.2.2ZM3,11.5c-.1,0-.2,0-.2-.2s0-.2.2-.2.2,0,.2.2,0,.2-.2.2ZM4.4,13c-.1,0-.2,0-.2-.2s0-.2.2-.2.2,0,.2.2,0,.2-.2.2Z"/>
      <path class="st1" d="M8.5,5c0-.3-.2-.5-.5-.5s-.5.2-.5.5.1.4.3.4v8.4c-.2,0-.3.2-.3.4s.2.5.5.5.5-.2.5-.5-.1-.4-.3-.4V5.4c.2,0,.3-.2.3-.4ZM8,4.8c.1,0,.2,0,.2.2s0,.2-.2.2-.2,0-.2-.2,0-.2.2-.2ZM8,14.5c-.1,0-.2,0-.2-.2s0-.2.2-.2.2,0,.2.2,0,.2-.2.2Z"/>
      <path class="st1" d="M13.7,8.4c-.2,0-.4.1-.4.3h-1.8v-.7l1.5-.9c0,0,.2.1.3.1.3,0,.5-.2.5-.5s-.2-.5-.5-.5-.5.2-.5.5,0,0,0,0l-1.6,1c0,0,0,0,0,.1v1.9s0,0,0,.1l.8.7-.4.4-1.2-1.1v-2.4l1.1-1c0,0,0-.2,0-.2,0,0-.2,0-.2,0l-1.1,1s0,0,0,.1v3.9s0,0,0,.1l1.1,1c0,0,0,.1,0,.2,0,.3.2.5.5.5s.5-.2.5-.5-.2-.5-.5-.5-.1,0-.2,0l-1.1-1v-.9l1.1,1s0,0,0,0c0,0,0,0,0,0,0,0,0,0,0,0,0,0,0,0,0,0,0,0,0,0,0,0,0,0,0,0,0,0,0,0,0,0,0,0,0,0,0,0,0,0,0,0,0,0,0,0,0,0,0,0,0,0,0,0,0,0,0,0,0,0,0,0,0,0,0,0,0,0,0,0,0,0,0,0,0,0,0,0,0,0,0,0h0s0,0,0,0h1.1c0,.2.2.3.4.3s.5-.2.5-.5-.2-.5-.5-.5-.4.1-.4.3h-.7l.4-.4s0,0,0-.1,0,0,0-.1l-.8-.8v-.7h1.8c0,.2.2.3.4.3s.5-.2.5-.5-.2-.5-.5-.5ZM13.2,6.5c.1,0,.2,0,.2.2s0,.2-.2.2-.2,0-.2-.2,0-.2.2-.2ZM11.8,12.8c0,.1,0,.2-.2.2s-.2,0-.2-.2,0-.2.2-.2.2,0,.2.2ZM13,11.2c.1,0,.2,0,.2.2s0,.2-.2.2-.2,0-.2-.2,0-.2.2-.2ZM13.7,9.1c-.1,0-.2,0-.2-.2s0-.2.2-.2.2,0,.2.2,0,.2-.2.2Z"/>
      <path class="st1" d="M10,13.1s0,0,0,0l-.7-1.3v-5l.6-.9s0,0,.1,0c.3,0,.5-.2.5-.5s-.2-.5-.5-.5-.5.2-.5.5,0,.2,0,.3l-.7.9s0,0,0,0v5.1s0,0,0,0l.7,1.3c0,0-.1.2-.1.3,0,.3.2.5.5.5s.5-.2.5-.5-.2-.5-.5-.5ZM10,5.3c.1,0,.2,0,.2.2s0,.2-.2.2-.2,0-.2-.2,0-.2.2-.2ZM10,13.8c-.1,0-.2,0-.2-.2s0-.2.2-.2.2,0,.2.2,0,.2-.2.2Z"/>
    </g>
    <circle class="st1" cx="1.7" cy="1.6" r=".6" transform="translate(.1 3.3) rotate(-89.7)"/>
    <circle class="st1" cx="3.5" cy="1.6" r=".6" transform="translate(1.9 5.1) rotate(-89.8)"/>
    <circle class="st1" cx="5.2" cy="1.6" r=".6" transform="translate(0 0) rotate(-.2)"/>
  </g>
</svg>