<?xml version="1.0" encoding="UTF-8"?>
<svg id="Layer_1" xmlns="http://www.w3.org/2000/svg" version="1.1" viewBox="0 0 128 128">
  <!-- Generator: Adobe Illustrator 29.5.0, SVG Export Plug-In . SVG Version: 2.1.0 Build 35)  -->
  <defs>
    <style>
      .st0 {
        fill: #3b4147;
      }

      .st1 {
        fill: #d67c48;
      }

      .st2 {
        fill: #f1946d;
      }

      .st3 {
        display: none;
      }

      .st4 {
        fill: #3c4247;
      }
    </style>
  </defs>
  <g class="st3">
    <path class="st2" d="M-594.5,245c0,6.3,0,12.7,0,19l-856,1c-.3-8.1.7-13.4,1-20h855Z"/>
    <path class="st2" d="M-1204.7,511.7l-77.7-47.8c-5.2,1.8-9,5.9-14.8,6.8-24.7,3.6-42.3-22.7-28.2-43.2,16.7-24.2,57.8-6.4,49.8,22.3l87.7,52.2v109.9s-44.6,43.3-44.6,43.3l24.4,26.3c19.9-20.3,42.4-37.6,61.2-58.6l.3-128.7c-3.4-2.9-6.1-6.7-9.2-9.9-18.5-18.8-45.4-37.2-62.4-56.5-.9-1-1.8-1.4-1.5-3,1.5-1.6,8.7-4.6,9-5s-2.3-3.8.5-5l2.8,1.2,78.6,69.3-.2,215.1-83.2,77.1c4.7,16.3-.6,34.9-18.8,39.1-36.4,8.4-48.1-49.1-11.1-54,7.6-1,12.7,2,19.7,1.8l76.6-71.3v-47.4l-60.7,57.8-3.5-.8-35.2-34.9-29.5,1c-2.9,41.3-64.7,30.8-55.3-8.8s27.7-23.8,42.6-16c3.5,1.8,7.8,7.7,8.4,7.8,1.3.4,25.7-1.5,27.5-2.3l46.7-44.2v-39.5h-94.4c-13.3,30.8-58.9,21.5-54.2-13.2,3.9-28.7,46.2-31.4,53.7-3.7h94.9v-37Z"/>
    <path class="st2" d="M-899.1,692l74.9,71.9c11.5-.5,18.1-3.7,29.3,1.6,22.9,10.8,18.4,44.5-5.7,50-23.7,5.4-41-14.6-33.1-37.1l-82.3-78.6-.2-212.5c22.8-25.8,49.6-47.7,74.3-71.5,2.8-4.4,14.2,8.8,14.4,9.8.6,2.5-8.2,10.1-10.4,12.3-19.9,19.6-42.7,36.5-62.4,56.3l.9,131.7,60.4,55.6,25.5-25.4-44.7-43.2v-110.9s85.7-53.6,85.7-53.6c3.1-3.7,1.6-11.3,4.4-17.6,8.1-17.9,32.7-19.8,44.9-4.9,22.6,27.7-12.9,58.6-39.7,37.1l-78.7,49.2c0,9,.2,18,.1,27s-2.4,9.5.5,9.5h95.4c2.7-11.3,13.2-19.4,24.8-19.7,27-.9,40.3,36.2,14.9,50.9s-32.5,1.5-41.1-14.2h-95.4v39.5l46.7,44.2,27.5,3.1c8.6-9.8,17.5-13.9,31-11.6s19.8,13,20.7,22.2c4.2,39.5-48.9,42.4-55.2,6.7l-27.2-3.2-40,38.7-60.4-56.7v43.4Z"/>
    <path class="st2" d="M-1002.4,328.3c9,10.1,9,26.6.3,37.1s-8.5,5.9-12,10v443.5c31.5,8.1,21.8,56-9.4,54.5-30.2-1.5-37.4-44.8-8.4-54.5l.5-445c-33-13.3-19.9-62.3,16.9-52.9,3.6.9,9.8,4.6,12.2,7.3Z"/>
    <path class="st2" d="M-903.4,351.2c1.3.8,11.6,12.1,12.2,13.5,7.2,17.8-5,37.8-24.4,38.2-2.9,0-7.9-2.3-10-1.1s-20.5,27.7-23.3,31.7c-2.8,4.2-5.5,8.5-8.4,12.6l-.2,273.6,33.4,62.7c17.9-4.2,34.9,6.7,35.5,25.6.9,27.4-34.9,39.7-51.6,17.8-8.6-11.3-5.5-24.8-.2-36.7l-34.7-66.2v-279.6c0,0,34.5-52.4,34.5-52.4-9.4-23.3,3.2-45.4,29.8-41.9s6.7,1.9,7.2,2.3Z"/>
    <path class="st2" d="M-1090.2,415.2c6.3,8.5,12.5,17.1,18.8,25.7l.5,278.1c-9.9,24.9-25.7,47.2-35.8,72.2-.2,1,5.2,9.3,5.8,12.8,2.7,17.7-12.9,34.9-30.9,32.9-33.5-3.7-32.3-52.2-1.4-55.3,3.9-.4,9.4,1.7,11.4-.6,10.1-22.4,24.4-42.7,33.8-65.1v-263.6c-1.4-15.7-25.8-36.2-31.9-51.4-43.9,16-52.5-57.7-5.6-51.8,20,2.5,30,27.4,17.8,43.2,6,6,9.6,14.1,14.4,20.6s2.5,1.6,3.1,2.4Z"/>
    <circle class="st2" cx="-1357.3" cy="168.9" r="32.4"/>
    <circle class="st2" cx="-1263.4" cy="169.2" r="32.2"/>
    <circle class="st2" cx="-1170.7" cy="169" r="32.2"/>
    <circle class="st4" cx="-1301.9" cy="443.3" r="10.6"/>
    <circle class="st4" cx="-1237.7" cy="789.8" r="10.6"/>
    <path class="st4" d="M-1304.9,657.8c13.8-2.7,17.9,16,7.3,19.3-16.1,4.9-21.2-16.6-7.3-19.3Z"/>
    <circle class="st4" cx="-1325.8" cy="557.3" r="10.4"/>
    <path class="st4" d="M-811.5,779.6c19.9-4.6,18.4,24.9.2,19.3-8.7-2.7-9.6-17.1-.2-19.3Z"/>
    <path class="st4" d="M-722.6,546.9c14.9-3.4,16.8,19.3,3.7,20.7-13.9,1.5-15-18.2-3.7-20.7Z"/>
    <path class="st4" d="M-743.5,433c12.3-.9,13.9,19.7,1.8,20.8-15.2,1.4-15.1-19.8-1.8-20.8Z"/>
    <path class="st4" d="M-749.9,675.2c-4.8-4.4-5-14.7,2.4-16.4,24.9-5.9,12.7,30.2-2.4,16.4Z"/>
    <circle class="st4" cx="-1022.5" cy="845.5" r="10.6"/>
    <path class="st4" d="M-1029.6,355.5c-9.5-9,3.5-25.3,13.6-16.1,10,9.2-3.6,25.6-13.6,16.1Z"/>
    <path class="st4" d="M-909.4,801.7c9,7.7-.9,23.4-12.6,17.1s1.1-27,12.6-17.1Z"/>
    <path class="st4" d="M-919.4,367.1c20.1-4.7,15.4,24.3-.5,18-8.1-3.2-8.5-15.9.5-18Z"/>
    <circle class="st4" cx="-1129.2" cy="809.7" r="10.5"/>
    <circle class="st4" cx="-1129.6" cy="376" r="10.1"/>
  </g>
  <rect class="st0" x="0" width="128" height="128" rx="16" ry="16"/>
  <g>
    <rect class="st1" y="24.3" width="128" height="3"/>
    <g>
      <path class="st1" d="M51.2,46c.4-.6.6-1.3.6-2.1,0-2.1-1.7-3.8-3.8-3.8s-3.8,1.7-3.8,3.8,1.7,3.8,3.8,3.8.7,0,1-.1l5.1,7.1v40l-5.5,10.2c-.2,0-.3,0-.5,0-2.1,0-3.8,1.7-3.8,3.8s1.7,3.8,3.8,3.8,3.8-1.7,3.8-3.8-.4-1.8-.9-2.5l5.7-10.5c.1-.2.2-.4.2-.6v-40.8c0-.3,0-.6-.2-.8l-5.3-7.5ZM46.5,43.9c0-.9.7-1.6,1.6-1.6s1.6.7,1.6,1.6-.7,1.6-1.6,1.6-1.6-.7-1.6-1.6ZM48.1,110.3c-.9,0-1.6-.7-1.6-1.6s.7-1.6,1.6-1.6,1.6.7,1.6,1.6-.7,1.6-1.6,1.6Z"/>
      <path class="st1" d="M47.7,92.7c.3-.3.4-.6.4-1v-31.1c0-.4-.2-.8-.5-1l-9.2-8.1c-.6-.5-1.4-.4-1.9.1-.5.6-.4,1.4.1,1.9l8.7,7.7v18.9l-9.3,8.7-3.3-3.5,6-5.8c.3-.3.4-.6.4-1v-15.3c0-.5-.2-.9-.7-1.2l-12.7-7.6c0-.2,0-.4,0-.7,0-2.1-1.7-3.8-3.8-3.8s-3.8,1.7-3.8,3.8,1.7,3.8,3.8,3.8,1.7-.3,2.4-.8l12,7.2v5.5h-14.3c-.5-1.4-1.9-2.5-3.6-2.5s-3.8,1.7-3.8,3.8,1.7,3.8,3.8,3.8,3-1,3.6-2.5h14.3v5.8l-6.6,6.3c-.3.2-.4.6-.4.9,0,.4.1.7.4,1l3,3.1h-5.5c-.5-1.4-1.9-2.5-3.6-2.5s-3.8,1.7-3.8,3.8,1.7,3.8,3.8,3.8,3-1,3.6-2.5h8.7s0,0,0,0,0,0,0,0c0,0,0,0,.1,0,0,0,0,0,0,0,0,0,0,0,0,0,0,0,0,0,0,0,0,0,0,0,0,0,0,0,0,0,0,0,0,0,0,0,0,0,0,0,0,0,0,0,0,0,0,0,0,0,0,0,0,0,0,0,0,0,0,0,0,0,0,0,0,0,0,0,0,0,0,0,0,0,0,0,0,0,0,0,0,0,0,0,0,0l8.5-7.9v7.3l-8.6,8c-.5-.3-1.1-.4-1.7-.4-2.1,0-3.8,1.7-3.8,3.8s1.7,3.8,3.8,3.8,3.8-1.7,3.8-3.8-.1-1-.3-1.4l9-8.4ZM22.1,55.5c-.9,0-1.6-.7-1.6-1.6s.7-1.6,1.6-1.6,1.6.7,1.6,1.6-.7,1.6-1.6,1.6ZM18.6,72.5c-.9,0-1.6-.7-1.6-1.6s.7-1.6,1.6-1.6,1.6.7,1.6,1.6-.7,1.6-1.6,1.6ZM23.8,92.3c-.9,0-1.6-.7-1.6-1.6s.7-1.6,1.6-1.6,1.6.7,1.6,1.6-.7,1.6-1.6,1.6ZM35.2,104.1c-.9,0-1.6-.7-1.6-1.6s.7-1.6,1.6-1.6,1.6.7,1.6,1.6-.7,1.6-1.6,1.6Z"/>
      <path class="st1" d="M67.7,39.8c0-2.1-1.7-3.8-3.8-3.8s-3.8,1.7-3.8,3.8,1,3,2.5,3.6v67.2c-1.4.5-2.5,1.9-2.5,3.6s1.7,3.8,3.8,3.8,3.8-1.7,3.8-3.8-1-3-2.5-3.6V43.3c1.4-.5,2.5-1.9,2.5-3.6ZM63.9,38.2c.9,0,1.6.7,1.6,1.6s-.7,1.6-1.6,1.6-1.6-.7-1.6-1.6.7-1.6,1.6-1.6ZM63.9,115.6c-.9,0-1.6-.7-1.6-1.6s.7-1.6,1.6-1.6,1.6.7,1.6,1.6-.7,1.6-1.6,1.6Z"/>
      <path class="st1" d="M109.2,67.2c-1.6,0-3,1-3.6,2.5h-14.3v-5.5l12-7.2c.6.5,1.5.8,2.4.8,2.1,0,3.8-1.7,3.8-3.8s-1.7-3.8-3.8-3.8-3.8,1.7-3.8,3.8,0,.5,0,.7l-12.7,7.6c-.4.2-.7.7-.7,1.2v15.3c0,.4.1.7.4,1l6,5.8-3.3,3.5-9.3-8.7v-18.9l8.7-7.7c.6-.5.6-1.3.1-1.9-.5-.6-1.3-.6-1.9-.1l-9.2,8.1c-.3.3-.5.6-.5,1v31.1c0,.4.2.7.4,1l9,8.4c-.2.4-.3.9-.3,1.4,0,2.1,1.7,3.8,3.8,3.8s3.8-1.7,3.8-3.8-1.7-3.8-3.8-3.8-1.2.1-1.7.4l-8.6-8v-7.3l8.5,7.9s0,0,0,0c0,0,0,0,0,0,0,0,0,0,0,0,0,0,0,0,0,0,0,0,0,0,0,0,0,0,0,0,0,0,0,0,0,0,0,0,0,0,0,0,0,0,0,0,0,0,0,0,0,0,0,0,0,0,0,0,0,0,0,0,0,0,0,0,0,0,0,0,0,0,0,0,0,0,0,0,0,0,0,0,0,0,.1,0s0,0,0,0,0,0,0,0h8.7c.5,1.4,1.9,2.5,3.6,2.5s3.8-1.7,3.8-3.8-1.7-3.8-3.8-3.8-3,1-3.6,2.5h-5.5l3-3.1c.2-.3.4-.6.4-1s-.2-.7-.4-.9l-6.6-6.3v-5.8h14.3c.5,1.4,1.9,2.5,3.6,2.5s3.8-1.7,3.8-3.8-1.7-3.8-3.8-3.8ZM105.7,52.4c.9,0,1.6.7,1.6,1.6s-.7,1.6-1.6,1.6-1.6-.7-1.6-1.6.7-1.6,1.6-1.6ZM94.3,102.5c0,.9-.7,1.6-1.6,1.6s-1.6-.7-1.6-1.6.7-1.6,1.6-1.6,1.6.7,1.6,1.6ZM104.1,89.2c.9,0,1.6.7,1.6,1.6s-.7,1.6-1.6,1.6-1.6-.7-1.6-1.6.7-1.6,1.6-1.6ZM109.2,72.5c-.9,0-1.6-.7-1.6-1.6s.7-1.6,1.6-1.6,1.6.7,1.6,1.6-.7,1.6-1.6,1.6Z"/>
      <path class="st1" d="M79.8,104.9c-.2,0-.3,0-.5,0l-5.5-10.2v-40l5.1-7.1c.3,0,.6.1,1,.1,2.1,0,3.8-1.7,3.8-3.8s-1.7-3.8-3.8-3.8-3.8,1.7-3.8,3.8.2,1.5.6,2.1l-5.3,7.5c-.2.2-.2.5-.2.8v40.8c0,.2,0,.4.2.6l5.7,10.5c-.6.7-.9,1.5-.9,2.5,0,2.1,1.7,3.8,3.8,3.8s3.8-1.7,3.8-3.8-1.7-3.8-3.8-3.8ZM79.8,42.3c.9,0,1.6.7,1.6,1.6s-.7,1.6-1.6,1.6-1.6-.7-1.6-1.6.7-1.6,1.6-1.6ZM79.8,110.3c-.9,0-1.6-.7-1.6-1.6s.7-1.6,1.6-1.6,1.6.7,1.6,1.6-.7,1.6-1.6,1.6Z"/>
    </g>
    <circle class="st1" cx="13.9" cy="12.9" r="4.9" transform="translate(.9 26.8) rotate(-89.7)"/>
    <circle class="st1" cx="28" cy="12.9" r="4.9" transform="translate(14.9 40.9) rotate(-89.8)"/>
    <circle class="st1" cx="41.9" cy="12.9" r="4.9" transform="translate(0 .1) rotate(-.2)"/>
  </g>
</svg>